<svg version="1.1" id="Layer_1" xmlns="http://www.w3.org/2000/svg" xmlns:xlink="http://www.w3.org/1999/xlink" x="0px" y="0px"
	 width="100%" viewBox="0 0 260 260" enable-background="new 0 0 260 260" xml:space="preserve">
<path fill="#770752" opacity="1.000000" stroke="none" 
	d="
M169.000000,261.000000 
	C112.666664,261.000000 56.833332,261.000000 1.000000,261.000000 
	C1.000000,174.333328 1.000000,87.666664 1.000000,1.000000 
	C87.666664,1.000000 174.333328,1.000000 261.000000,1.000000 
	C261.000000,87.666664 261.000000,174.333328 261.000000,261.000000 
	C230.500000,261.000000 200.000000,261.000000 169.000000,261.000000 
M182.910004,220.977249 
	C195.277100,220.929276 207.644211,220.881302 220.525940,220.900543 
	C220.628418,220.607040 220.730881,220.313553 220.977264,219.089996 
	C220.977264,173.406372 220.977264,127.722733 220.977264,81.062836 
	C207.272018,81.062836 194.094009,81.062836 180.988571,80.120094 
	C180.988571,67.190025 180.988571,54.259964 180.988571,41.294914 
	C134.058640,41.294914 87.687859,41.294914 41.295460,41.294914 
	C41.295460,101.288162 41.295460,160.986008 41.295460,220.671143 
	C54.647568,220.671143 67.701469,220.671143 81.213669,220.671143 
	C81.213669,173.971237 81.213669,127.598564 81.213669,80.921074 
	C114.804016,80.921074 147.931030,80.921074 181.008087,81.867844 
	C181.005402,100.487968 180.980957,119.108131 181.005142,137.728226 
	C181.040771,165.155930 181.111099,192.583618 181.099457,220.525940 
	C181.392960,220.628403 181.686447,220.730865 182.910004,220.977249 
z"/>
<path fill="#E9EBEB" opacity="1.000000" stroke="none" 
	d="
M181.058029,80.921074 
	C147.931030,80.921074 114.804016,80.921074 81.213669,80.921074 
	C81.213669,127.598564 81.213669,173.971237 81.213669,220.671143 
	C67.701469,220.671143 54.647568,220.671143 41.295460,220.671143 
	C41.295460,160.986008 41.295460,101.288162 41.295460,41.294914 
	C87.687859,41.294914 134.058640,41.294914 180.988571,41.294914 
	C180.988571,54.259964 180.988571,67.190025 180.989090,80.557320 
	C180.989609,80.994545 181.058029,80.921074 181.058029,80.921074 
z"/>
<path fill="#E9EBEB" opacity="1.000000" stroke="none" 
	d="
M180.952820,81.028687 
	C194.094009,81.062836 207.272018,81.062836 220.977264,81.062836 
	C220.977264,127.722733 220.977264,173.406372 220.754059,219.675659 
	C220.337341,220.433548 220.164154,220.624207 220.011307,220.833344 
	C207.644211,220.881302 195.277100,220.929276 182.324341,220.754044 
	C181.566452,220.337341 181.375793,220.164154 181.166656,220.011307 
	C181.111099,192.583618 181.040771,165.155930 181.005142,137.728226 
	C180.980957,119.108131 181.005402,100.487968 181.033051,81.394455 
	C181.058029,80.921074 180.989609,80.994545 180.952820,81.028687 
z"/>
<path fill="#E9EBEB" opacity="1.000000" stroke="none" 
	d="
M181.133057,220.268616 
	C181.375793,220.164154 181.566452,220.337341 181.859314,220.682098 
	C181.686447,220.730865 181.392960,220.628403 181.133057,220.268616 
z"/>
<path fill="#E9EBEB" opacity="1.000000" stroke="none" 
	d="
M220.268616,220.866943 
	C220.164154,220.624207 220.337341,220.433548 220.682098,220.140686 
	C220.730881,220.313553 220.628418,220.607040 220.268616,220.866943 
z"/>
</svg>